<?xml version="1.0" encoding="UTF-8"?><svg id="Layer_1" xmlns="http://www.w3.org/2000/svg" viewBox="0 0 808.5 728.55"><path d="M37.01,685.78c-.65,.98-1.86,1.5-3.61,1.56l-2.15-.1-1.76-.2c-5.79-.2-11.52-.2-17.19,0-3.26,.13-5.24-1.56-5.96-5.08-.26-1.5-.29-4.17-.1-8.01l.29-5.18c0-2.15-.07-4.2-.2-6.15,0-.59-.2-2.02-.59-4.3l-.39-2.73-.39-2.64c-.59-5.14-1.14-12.6-1.66-22.36-.33-6.97-.68-16.05-1.07-27.25-.72-22.98-1.24-35.12-1.56-36.43l-.59-3.91-.1-4.39c.26-3.45,1.27-5.7,3.03-6.74,2.15-1.24,5.18-2.18,9.08-2.83l4.39-.59,3.42-.68c3.12-.85,5.79,.13,8.01,2.93,1.89,2.54,3.29,5.66,4.2,9.38,2.99,12.7,6.93,23.86,11.82,33.5l3.22,6.15,3.22,6.45c2.54,4.95,4.43,8.98,5.66,12.11l1.07,1.46c.52,.46,.98,.68,1.37,.68,.98,.07,1.46-.29,1.46-1.07v-2.15c.39-1.43-.07-9.5-1.37-24.22-1.3-14.58-2.41-24.67-3.32-30.27-1.3-7.36-.23-11.75,3.22-13.18,2.99-1.24,5.79-1.92,8.4-2.05l3.12,.1,3.03,.1,4.3-.1h4.1c2.93,.26,4.82,1.43,5.66,3.52,.52,1.11,.85,3.45,.98,7.03l.2,4.1c0,1.5,.03,2.51,.1,3.03,.13,1.82,.16,4.75,.1,8.79l-.1,4.69,.1,4.1c0,.78,.06,2.54,.2,5.27l.2,8.01c.2,7.29,.36,11.69,.49,13.18,.2,1.63,.29,4.26,.29,7.91l-.1,11.04c0,10.29,.32,17.77,.98,22.46,.52,3.52,.91,9.64,1.17,18.36,.13,3.32,.23,6.32,.29,8.98l-.1,4.3c-.46,2.8-1.95,4.26-4.49,4.39l-19.53,.39c-1.89,0-3.39-1.04-4.49-3.12-1.24-2.28-2.31-4.72-3.22-7.32-.91-2.6-4.79-8.82-11.62-18.65-6.58-9.57-10.06-14.32-10.45-14.26-.59,.13-.75,1.79-.49,4.98l.39,3.52,.2,1.27,.1,.78c.65,3.32,.81,9.12,.49,17.38-.39,8.2-.98,12.89-1.76,14.06Z"/><path d="M168.95,681.68c-1.5,2.67-3.65,4.2-6.45,4.59-3,.46-6.74,.65-11.23,.59l-5.96-.2-6.25-.29c-1.04,0-3.19,.1-6.45,.29l-4.2,.29-4.59,.29c-7.81,.33-12.76-.1-14.84-1.27-3-1.63-4.82-4.52-5.47-8.69-.39-2.02-.55-4.88-.49-8.59v-4.3l-.29-4.39c-.39-3.25-.23-11.88,.49-25.88l.39-8.2,.29-7.91c.26-5.73,.33-10.02,.2-12.89-.13-.78-.07-2.08,.2-3.91l.39-2.25,.39-1.95c.46-2.86,1.82-4.92,4.1-6.15l3.22-1.17,3.12-.68c1.3-.33,2.57-.52,3.81-.59l1.46-.1,1.37-.2c4.49-.59,13.15-.91,25.98-.98h2.93l2.93,.2c1.37,.2,2.73,.62,4.1,1.27,.98,.52,1.82,1.11,2.54,1.76,.98,.91,1.92,2.15,2.83,3.71l.98,1.86,.59,1.27c1.43,3.39,2.34,8.73,2.73,16.02l.1,1.27,.1,1.76,.2,4.1c.2,3.58,.29,6.22,.29,7.91,.52,4.3,.78,7.23,.78,8.79,0,3.06,.1,6.22,.29,9.47l.59,8.3c.59,6.97,.81,12.89,.68,17.77-.07,1.3-.26,2.87-.59,4.69-.39,2.02-.81,3.48-1.27,4.39Zm-45.21-61.82c.26,3.32,.29,7.32,.1,12.01l-.49,12.11c-.13,5.73,.52,10.74,1.95,15.04,1.04,3.06,3.09,4.95,6.15,5.66,3.52,.78,7.62,.81,12.3,.1,3.32-.46,5.31-2.31,5.96-5.57l.68-3.61,.49-3.81,.2-4.98c.06-2.02-.03-3.68-.29-4.98-1.5-10.03-2.51-18.46-3.03-25.29-.39-5.21-3.29-7.71-8.69-7.52-.91,0-2.02,.07-3.32,.2l-4.2,.59c-3.52,.52-5.47,1.07-5.86,1.66l-1.07,2.34-.68,2.44c-.26,1.17-.33,2.38-.2,3.61Z"/><path d="M246.19,611.66c.72,4.56,.81,9.08,.29,13.57-.78,6.12-2.38,9.8-4.79,11.04-1.63,.78-4.95,1.95-9.96,3.52,1.76,2.08,3.32,4.49,4.69,7.23,1.04,2.08,2.15,4.43,3.32,7.03,1.37,3.39,2.6,6.71,3.71,9.96,2.86,8.85,4.1,16.11,3.71,21.78-.13,1.17-1.82,1.63-5.08,1.37-1.56-.06-3.78-.1-6.64-.1l-3.32,.1-2.93,.1c-.98,0-1.82-1.04-2.54-3.12l-.68-2.54-.59-2.05-.98-3.03-1.07-3.22c-.91-2.47-1.63-4.26-2.15-5.37-1.43-2.8-3.42-5.53-5.96-8.2-3.26-3.25-6.28-5.08-9.08-5.47-.46,1.11-.42,4.17,.1,9.18,.2,1.69,.42,3.55,.68,5.57l.29,2.25,.2,1.37,.49,4.3,.29,4.3c.33,3.45-.2,5.44-1.56,5.96-.98,.2-3.35,.2-7.13,0l-4.3-.2c-1.56,0-2.8,.03-3.71,.1-3.52,.39-5.47-1.56-5.86-5.86l-.59-4.98-.88-5.18c-.59-4.17-.85-7.55-.78-10.16-.07-12.63-.81-29.75-2.25-51.37-.13-2.02-.13-4.95,0-8.79,.2-3.97,.42-6.41,.68-7.32,.98-2.86,3.61-4.49,7.91-4.88,.85-.06,3.38-.13,7.62-.2h4.88c1.69,0,2.99-.03,3.91-.1,3.58-.33,8.01-.55,13.28-.68l6.54-.1,6.84-.29c4.43-.2,7.32,1.46,8.69,4.98,.46,1.04,.94,2.48,1.46,4.3l.68,2.34,.49,2.05c.52,1.95,1.2,5.57,2.05,10.84Zm-24.32,11.52l.68-3.22,.59-3.52c.33-2.8,.23-5.24-.29-7.32-.33-1.37-2.25-2.02-5.76-1.95-1.3,0-2.67,.1-4.1,.29-1.3,.2-2.31,.42-3.03,.68-3.06,.98-4.79,4.39-5.18,10.25v1.17l.1,1.56,.29,4c.13,1.3,.85,1.92,2.15,1.86l11.43-.88c1.69-.2,2.73-1.17,3.12-2.93Z"/><path d="M282.52,631.19v-3.22c0-1.76-.03-2.8-.1-3.12l-.1-2.83-.1-2.93c-.33-2.21-1.17-3.32-2.54-3.32-.85,0-2.28-.06-4.3-.2l-5.27-.1c-4.62-.13-8.11,.1-10.45,.68-1.82,.46-2.77-.45-2.83-2.73,.39-3.25,.65-6.31,.78-9.18,.06-2.28,.1-4.49,.1-6.64l-.2-6.05c.59-1.76,1.72-2.73,3.42-2.93,3.32-.33,6.28-.49,8.89-.49,3.52-.06,8.46,.03,14.84,.29l7.23,.29,6.64,.2c3.71,0,7.71-.13,12.01-.39,3.25-.2,6.87-.45,10.84-.78,.59-.06,1.92-.16,4-.29,2.08-.2,3.45-.29,4.1-.29,.85-.06,1.56,.42,2.15,1.46,.59,.98,.75,1.95,.49,2.93-1.43,6.45-2.18,12.37-2.25,17.77,0,2.8-1.53,4.23-4.59,4.3-3.19,.07-7.26,.33-12.21,.78-3.97,.26-6.02,3.39-6.15,9.38,0,3.91-.07,9.77-.2,17.58l-.2,8.98v14.75l.1,5.76c.06,4.69,.03,8.63-.1,11.82-.13,2.87-1.5,4.39-4.1,4.59l-7.52,.1h-7.52c-2.6,.06-4.13-.06-4.59-.39-.59-.52-.88-2.18-.88-4.98l.59-50.78Z"/><path d="M409.08,674.45l.29,4.39,.2,4.3c.06,2.87-1.27,4.26-4,4.2l-8.2-.49c-3.32-.26-6.09-.26-8.3,0-1.69,.2-2.64-.78-2.83-2.93-.2-2.41-.26-5.31-.2-8.69l.49-8.89c.33-7.36-.1-13.05-1.27-17.09-.39-1.37-.98-2.83-1.76-4.39-.59-1.11-1.46-1.4-2.64-.88-.72,.33-1.99,.81-3.81,1.46l-4.88,1.76c-4.17,1.56-6.87,3-8.11,4.3-.65,.72-.98,4.49-.98,11.33l.1,4,.1,3.71c.06,3,.1,4.62,.1,4.88v9.57c0,1.17-.52,1.89-1.56,2.15-.91,.2-2.28,.26-4.1,.2l-1.86-.1h-2.44c-2.21,0-4.72,.03-7.52,.1-1.56,0-2.8-.49-3.71-1.46-.72-.78-1.04-1.59-.98-2.44,.26-3.32,.39-9.34,.39-18.07,.06-8.92-.03-14.06-.29-15.43-.2-1.56-.23-11.33-.1-29.3l.1-10.16v-9.18c.06-6.25,.06-9.99,0-11.23-.07-.72,0-1.33,.2-1.86,.2-.52,.65-.85,1.37-.98l.88-.1h.88c2.54,.2,4.98,.33,7.32,.39,1.63,.07,3.32,.13,5.08,.2,3.06,0,4.79,.03,5.18,.1,.59,.07,1.01,.65,1.27,1.76,.2,.85,.23,1.69,.1,2.54v2.05c.2,1.24,.26,3.52,.2,6.84,0,2.34-.1,5.63-.29,9.86-.33,8.92-.39,13.74-.2,14.45,.39,2.08,1.63,3.06,3.71,2.93,4.82-.26,8.5-1.07,11.04-2.44,3.38-1.76,5.08-4.46,5.08-8.11,0-1.89-.13-4.75-.39-8.59l-.29-4.69-.2-2.15-.1-1.76-.29-5.57c0-.85,.2-1.82,.59-2.93,.52-1.3,1.04-2.15,1.56-2.54,.59-.39,1.79-.62,3.61-.68h1.37l1.86-.1c1.56-.06,3.12-.16,4.69-.29,5.86-1.24,9.21-1.56,10.06-.98,1.04,.72,1.43,3.94,1.17,9.67-.07,.98-.1,6.48-.1,16.5l.1,16.7c.06,5.99,.36,13.05,.88,21.19l.39,5.08,.39,5.37c.26,4.3,.49,8.46,.68,12.5Z"/><path d="M486.62,687.25c-7.29-.33-10.94-1.43-10.94-3.32v-9.96l.29-9.96c.33-8.53,.42-15.17,.29-19.92-.39-14.26-1.21-26.72-2.44-37.4l-2.83-25.2-2.64-25.29-.1-3.03c.39-3.06,2.25-4.59,5.57-4.59h56.54c15.3-.06,24.15-.36,26.56-.88,3.52-.78,5.57,.81,6.15,4.79l.39,5.08c-.07,9.9-4,14.84-11.82,14.84-14.13-.06-28.26,1.27-42.38,4-4.1,.78-6.32,1.89-6.64,3.32-.59,2.6-1.07,6.64-1.46,12.11l-.29,6.74-.1,2.93-.1,2.54c-.13,3.12,1.37,4.56,4.49,4.3,1.11-.13,3.45-.52,7.03-1.17l4.79-.88,5.18-.88c8.79-1.5,13.83-1.82,15.14-.98,.65,.39,1.4,2.73,2.25,7.03l1.17,6.15,.98,6.35c.46,2.8-.78,4.56-3.71,5.27-4.62,1.17-8.63,1.95-12.01,2.34-8.79,.98-14.19,2.18-16.21,3.61-2.73,1.89-4.13,6.32-4.2,13.28,1.04,20.44-.88,32.81-5.76,37.11-1.56,1.43-5.96,1.99-13.18,1.66Z"/><path d="M639.55,681.68c-1.5,2.67-3.65,4.2-6.45,4.59-3,.46-6.74,.65-11.23,.59l-5.96-.2-6.25-.29c-1.04,0-3.19,.1-6.45,.29l-4.2,.29-4.59,.29c-7.81,.33-12.76-.1-14.84-1.27-3-1.63-4.82-4.52-5.47-8.69-.39-2.02-.55-4.88-.49-8.59v-4.3l-.29-4.39c-.39-3.25-.23-11.88,.49-25.88l.39-8.2,.29-7.91c.26-5.73,.33-10.02,.2-12.89-.13-.78-.07-2.08,.2-3.91l.39-2.25,.39-1.95c.46-2.86,1.82-4.92,4.1-6.15l3.22-1.17,3.12-.68c1.3-.33,2.57-.52,3.81-.59l1.46-.1,1.37-.2c4.49-.59,13.15-.91,25.98-.98h2.93l2.93,.2c1.37,.2,2.73,.62,4.1,1.27,.98,.52,1.82,1.11,2.54,1.76,.98,.91,1.92,2.15,2.83,3.71l.98,1.86,.59,1.27c1.43,3.39,2.34,8.73,2.73,16.02l.1,1.27,.1,1.76,.2,4.1c.2,3.58,.29,6.22,.29,7.91,.52,4.3,.78,7.23,.78,8.79,0,3.06,.1,6.22,.29,9.47l.59,8.3c.59,6.97,.81,12.89,.68,17.77-.07,1.3-.26,2.87-.59,4.69-.39,2.02-.81,3.48-1.27,4.39Zm-45.21-61.82c.26,3.32,.29,7.32,.1,12.01l-.49,12.11c-.13,5.73,.52,10.74,1.95,15.04,1.04,3.06,3.09,4.95,6.15,5.66,3.52,.78,7.62,.81,12.3,.1,3.32-.46,5.31-2.31,5.96-5.57l.68-3.61,.49-3.81,.2-4.98c.06-2.02-.03-3.68-.29-4.98-1.5-10.03-2.51-18.46-3.03-25.29-.39-5.21-3.29-7.71-8.69-7.52-.91,0-2.02,.07-3.32,.2l-4.2,.59c-3.52,.52-5.47,1.07-5.86,1.66l-1.07,2.34-.68,2.44c-.26,1.17-.33,2.38-.2,3.61Z"/><path d="M673.83,642.81v3.81l-.1,5.66c-.07,5.21-.03,8.37,.1,9.47,.13,1.5,1.92,2.34,5.37,2.54,1.11,.07,2.51,.03,4.2-.1h1.86l1.46-.1c11.85,.07,20.77,.29,26.76,.68,3.06,.13,4.62,1.73,4.69,4.79,0,1.24,.1,2.51,.29,3.81l.49,2.93c.26,2.08,.03,4.3-.68,6.64l-.49,1.46-.78,1.56c-.72,1.11-1.5,1.5-2.34,1.17l-6.84-.1-6.45-.29c-5.14-.13-9.54-.03-13.18,.29-2.54,.2-6.74,.29-12.6,.29l-7.13-.1h-5.96l-2.64-.29h-2.54c-1.89-.06-3.12-.81-3.71-2.25-.78-4.69-1.11-11.62-.98-20.8l.1-5.18,.2-4.59c.13-3.45,.2-5.63,.2-6.54l.1-11.43,.2-11.62c.13-9.18,.06-15.69-.2-19.53-.2-3.65-.65-8.24-1.37-13.77-.46-3.19,1.01-4.49,4.39-3.91,5.21,.46,9.21,.98,12.01,1.56,3.58,.72,5.34,3.91,5.27,9.57l-.1,1.27-.1,1.95c-.07,1.95-.1,3.87-.1,5.76-.13,12.7,.06,24.48,.59,35.35Z"/><path d="M798.14,593.01c.59,.13,.78,.46,.59,.98-.98,2.87-3.71,8.5-8.2,16.89-5.01,9.31-9.05,15.85-12.11,19.63-2.21,2.8-3.42,4.69-3.61,5.66-.26,1.37,.46,3.39,2.15,6.05l7.71,14.94,7.52,15.33,4.3,9.28c.59,1.37,.81,2.54,.68,3.52-.13,1.11-.75,1.66-1.86,1.66l-8.59-.1c-3.58-.06-6.64-.03-9.18,.1-1.43,.2-2.64-.59-3.61-2.34-4.04-7.75-9.15-13.87-15.33-18.36l-2.83-1.76c-.46-.26-.94-.2-1.46,.2-.52,.33-.78,.78-.78,1.37l.39,6.15c.52,5.47,.62,9.6,.29,12.4-.2,1.5-.85,2.28-1.95,2.34l-8.79,.39c-3.39,.06-6.32-.13-8.79-.59-2.28-.39-3.42-1.76-3.42-4.1,0-.13-.03-1.46-.1-4l-.1-3.61-.1-4.3c-.13-8.01-.03-14.68,.29-20.02,.26-4.95,.42-10.71,.49-17.29,0-2.54-.03-5.18-.1-7.91,0-2.08-.03-4.3-.1-6.64-.13-3.19-.46-6.84-.98-10.94l-1.56-10.84-.29-3.42c0-1.04,.49-1.72,1.46-2.05l3.52-.78c2.47-.52,5.18-1.14,8.11-1.86l3.32-.88,3.52-.78c3.12-.72,4.65-.39,4.59,.98l.1,5.86c0,2.41,.06,5.76,.2,10.06l.1,3.03v3.42c.06,2.8,.13,5.6,.2,8.4v1.37l.1,1.27c.2,.98,.62,1.63,1.27,1.95,.78,.26,1.5,.16,2.15-.29,.52-.26,1.07-.81,1.66-1.66,2.86-4.17,5.83-9.73,8.89-16.7,.91-2.15,2.12-4.46,3.61-6.93l4.3-6.35c1.5-2.15,3.55-2.86,6.15-2.15l16.21,3.42Z"/></svg>