<?xml version="1.0" encoding="UTF-8"?><svg id="Layer_1" xmlns="http://www.w3.org/2000/svg" viewBox="0 0 1000 1000"><path d="M266.59,800.37c-2.61,3.91-7.42,5.99-14.45,6.25l-8.59-.39-7.03-.78c-23.18-.78-46.09-.78-68.75,0-13.02,.53-20.97-6.25-23.83-20.31-1.04-5.99-1.17-16.66-.39-32.03l1.17-20.7c0-8.59-.26-16.8-.78-24.61,0-2.34-.78-8.07-2.34-17.19l-1.56-10.94-1.56-10.55c-2.34-20.57-4.56-50.39-6.64-89.45-1.31-27.86-2.73-64.19-4.3-108.98-2.87-91.92-4.95-140.49-6.25-145.7l-2.34-15.62-.39-17.58c1.04-13.8,5.08-22.78,12.11-26.95,8.59-4.94,20.7-8.72,36.33-11.33l17.58-2.34,13.67-2.73c12.5-3.38,23.17,.52,32.03,11.72,7.55,10.16,13.15,22.66,16.8,37.5,11.98,50.78,27.73,95.45,47.27,133.98l12.89,24.61,12.89,25.78c10.16,19.79,17.71,35.94,22.66,48.44l4.3,5.86c2.08,1.83,3.91,2.73,5.47,2.73,3.91,.26,5.86-1.17,5.86-4.3v-8.59c1.56-5.72-.26-38.02-5.47-96.88-5.21-58.33-9.64-98.69-13.28-121.09-5.21-29.42-.92-47,12.89-52.73,11.98-4.94,23.17-7.68,33.59-8.2l12.5,.39,12.11,.39,17.19-.39h16.41c11.72,1.04,19.27,5.73,22.66,14.06,2.08,4.43,3.38,13.81,3.91,28.12l.78,16.41c0,5.99,.13,10.03,.39,12.11,.52,7.29,.65,19.01,.39,35.16l-.39,18.75,.39,16.41c0,3.12,.26,10.16,.78,21.09l.78,32.03c.78,29.17,1.43,46.75,1.95,52.73,.78,6.51,1.17,17.06,1.17,31.64l-.39,44.14c0,41.15,1.3,71.09,3.91,89.84,2.08,14.06,3.64,38.54,4.69,73.44,.52,13.28,.91,25.26,1.17,35.94l-.39,17.19c-1.83,11.2-7.81,17.06-17.97,17.58l-78.12,1.56c-7.56,0-13.54-4.16-17.97-12.5-4.95-9.11-9.25-18.88-12.89-29.3-3.65-10.41-19.14-35.28-46.48-74.61-26.31-38.28-40.23-57.29-41.8-57.03-2.34,.53-3,7.17-1.95,19.92l1.56,14.06,.78,5.08,.39,3.12c2.6,13.28,3.25,36.46,1.95,69.53-1.56,32.81-3.91,51.56-7.03,56.25Z"/><path d="M601.75,806.23c-29.17-1.3-43.75-5.72-43.75-13.28v-39.84l1.17-39.84c1.3-34.11,1.69-60.67,1.17-79.69-1.56-57.03-4.82-106.9-9.77-149.61l-11.33-100.78-10.55-101.17-.39-12.11c1.56-12.24,8.98-18.36,22.27-18.36h226.17c61.19-.26,96.61-1.43,106.25-3.52,14.06-3.12,22.27,3.26,24.61,19.14l1.56,20.31c-.26,39.59-16.02,59.38-47.27,59.38-56.51-.26-113.03,5.08-169.53,16.02-16.41,3.12-25.26,7.56-26.56,13.28-2.34,10.42-4.3,26.56-5.86,48.44l-1.17,26.95-.39,11.72-.39,10.16c-.53,12.5,5.47,18.23,17.97,17.19,4.42-.52,13.8-2.08,28.12-4.69l19.14-3.52,20.7-3.52c35.16-5.99,55.33-7.29,60.55-3.91,2.6,1.56,5.6,10.94,8.98,28.12l4.69,24.61,3.91,25.39c1.82,11.2-3.12,18.23-14.84,21.09-18.49,4.69-34.51,7.81-48.05,9.38-35.16,3.91-56.78,8.73-64.84,14.45-10.94,7.56-16.54,25.26-16.8,53.12,4.16,81.78-3.52,131.25-23.05,148.44-6.25,5.73-23.83,7.94-52.73,6.64Z"/></svg>